<svg width="24" height="16" viewBox="0 0 24 16" fill="none" xmlns="http://www.w3.org/2000/svg">
<path d="M21.8016 1.82526e-06H2.00156C1.49765 1.82526e-06 1.01438 0.200182 0.658058 0.556501C0.301739 0.91282 0.101562 1.39609 0.101562 1.9V14.1C0.101562 14.6039 0.301739 15.0872 0.658058 15.4435C1.01438 15.7998 1.49765 16 2.00156 16H21.8016C22.3055 16 22.7887 15.7998 23.1451 15.4435C23.5014 15.0872 23.7016 14.6039 23.7016 14.1V2C23.7151 1.74221 23.6761 1.48435 23.5867 1.24216C23.4973 0.999972 23.3595 0.778537 23.1817 0.591375C23.0039 0.404214 22.7898 0.25525 22.5525 0.153574C22.3152 0.0518981 22.0597 -0.00035599 21.8016 1.82526e-06V1.82526e-06ZM21.1016 1.7L12.2016 9.6C12.115 9.66492 12.0097 9.7 11.9016 9.7C11.7934 9.7 11.6881 9.66492 11.6016 9.6L2.70156 1.7H21.1016ZM1.70156 13.2V3L7.60156 8.3L1.70156 13.2ZM2.80156 14.4L8.80156 9.4L10.5016 10.9C10.8866 11.2444 11.385 11.4348 11.9016 11.4348C12.4181 11.4348 12.9165 11.2444 13.3016 10.9L15.0016 9.4L21.0016 14.4H2.80156ZM22.1016 13.2L16.2016 8.3L22.1016 3V13.2Z" fill="white"/>
</svg>
