<svg width="13" height="16" viewBox="0 0 13 16" fill="none" xmlns="http://www.w3.org/2000/svg">
<path d="M7.3 11.6C6.51815 11.4764 5.78879 11.129 5.2 10.6C4.7 12.8 4.2 14.9 2.7 16C2.2 12.6 3.4 10.1 3.9 7.49999C4.4 4.89999 4 2.79999 6 3.59999C8 4.39999 3.9 9.39999 6.9 9.99999C9.9 10.6 11.3 4.59999 9.4 2.59999C7.5 0.599986 1.3 2.49999 1.9 6.59999C2 7.59999 3.1 7.89998 2.3 9.19998C0.500001 8.79998 0 7.39999 0 5.49999C0.107488 4.08392 0.705684 2.74973 1.69145 1.72746C2.67722 0.705178 3.98878 0.0588778 5.4 -0.100015C8 -0.400015 11.9 1.09998 12.4 4.29998C12.9 7.49998 10.9 11.8 7.4 11.5L7.3 11.6Z" fill="white"/>
</svg>
