<svg width="20" height="16" viewBox="0 0 20 16" fill="none" xmlns="http://www.w3.org/2000/svg">
<path d="M17.7984 3.7V4.5C17.8067 6.58749 17.2466 8.63785 16.1782 10.4312C15.1098 12.2246 13.5734 13.6934 11.7338 14.68C9.89415 15.6666 7.82066 16.1339 5.73566 16.0317C3.65066 15.9295 1.63279 15.2618 -0.101562 14.1H0.898438C2.75039 14.0786 4.54336 13.4458 5.99844 12.3C5.12015 12.3119 4.26237 12.0343 3.55751 11.5102C2.85265 10.9861 2.33991 10.2445 2.09844 9.4H3.99844C3.06293 9.23384 2.21713 8.74009 1.61247 8.00717C1.00781 7.27426 0.683795 6.35003 0.698437 5.4C1.29887 5.69221 1.93908 5.89438 2.59844 6C1.75301 5.39446 1.16229 4.49681 0.940613 3.4808C0.718937 2.46479 0.882071 1.40266 1.39844 0.500001C2.42738 1.75612 3.7045 2.78635 5.14988 3.52625C6.59526 4.26614 8.17778 4.69977 9.79844 4.8C9.72802 4.53929 9.69436 4.27002 9.69844 4C9.70548 3.45344 9.82448 2.91413 10.0481 2.41535C10.2717 1.91657 10.5951 1.46891 10.9984 1.1C11.7887 0.386949 12.8252 0.009146 13.8889 0.0464694C14.9526 0.0837928 15.9601 0.533316 16.6984 1.3C17.6361 1.12765 18.5449 0.824704 19.3984 0.4C19.1098 1.36614 18.4669 2.18762 17.5984 2.7L19.8984 1.7C19.3212 2.48474 18.6104 3.16174 17.7984 3.7V3.7Z" fill="white"/>
</svg>
